# xmcd
#
# Track frame offsets: 
#        150
#        28678
#        51164
#        75423
#        93321
#        114697
#        137184
#        157162
#        179388
#        207005
#
# Disc length: 3084 seconds
#
# Revision: 0
# Processed by: cddbd v1.5.2PL0 Copyright (c) Steve Scherf et al.
# Submitted via: ExactAudioCopy v1.0b3
#
DISCID=830c0a0a
DTITLE=Hong Truc - Tinh Co Do
DYEAR=2002
DGENRE=
TTITLE0=Tinh co do
TTITLE1=Cho vua long em
TTITLE2=Tinh sau bien gioi
TTITLE3=Mot phut suy tu
TTITLE4=Chi co mot nguoi
TTITLE5=Tra lai thoi gian
TTITLE6=Khung troi cu
TTITLE7=Biet anh con yeu em khong
TTITLE8=Sao chua thay hoi am
TTITLE9=Chuyen tinh tren ben O Lau
EXTD=
EXTT0=
EXTT1=
EXTT2=
EXTT3=
EXTT4=
EXTT5=
EXTT6=
EXTT7=
EXTT8=
EXTT9=
PLAYORDER=
